IKResults
version=1
nRows=9
nColumns=63
inDegrees=yes

Units are S.I. units (second, meters, Newtons, ...)
If the header above contains a line with 'inDegrees', this indicates whether rotational values are in degrees (yes) or radians (no).

endheader
time	pelvis_tilt	pelvis_list	pelvis_rotation	pelvis_tx	pelvis_ty	pelvis_tz	hip_flexion_r	hip_adduction_r	hip_rotation_r	knee_angle_r	knee_angle_r_beta	ankle_angle_r	subtalar_angle_r	mtp_angle_r	hip_flexion_l	hip_adduction_l	hip_rotation_l	knee_angle_l	knee_angle_l_beta	ankle_angle_l	subtalar_angle_l	mtp_angle_l	L5_S1_Flex_Ext	L5_S1_Lat_Bending	L5_S1_axial_rotation	L4_L5_Flex_Ext	L4_L5_Lat_Bending	L4_L5_axial_rotation	L3_L4_Flex_Ext	L3_L4_Lat_Bending	L3_L4_axial_rotation	L2_L3_Flex_Ext	L2_L3_Lat_Bending	L2_L3_axial_rotation	L1_L2_Flex_Ext	L1_L2_Lat_Bending	L1_L2_axial_rotation	L1_T12_Flex_Ext	L1_T12_Lat_Bending	L1_T12_axial_rotation	Abs_r3	Abs_r2	Abs_r1	Abs_t1	Abs_t2	neck_flexion	neck_bending	neck_rotation	arm_flex_r	arm_add_r	arm_rot_r	elbow_flex_r	pro_sup_r	wrist_flex_r	wrist_dev_r	arm_flex_l	arm_add_l	arm_rot_l	elbow_flex_l	pro_sup_l	wrist_flex_l	wrist_dev_l
      6.03333333	     15.99007963	    -52.88655071	    102.83127795	     -0.11303268	      0.44281987	      0.34518772	    116.97020583	    -14.56708890	     36.89364339	    119.96998818	      2.09387130	     34.17626445	     -4.42219761	      0.00000000	     96.63546741	    -23.01114896	     11.22725086	    119.94619100	      2.09345596	     10.12218458	    -14.49636299	      0.00000000	      6.03737846	      1.35929765	      1.17079580	     11.21201555	      1.80786588	      1.24397054	      9.91880908	      3.30499631	      1.24397054	      6.90011985	      3.30499631	      1.02444632	      5.60630964	      2.77187978	      0.95127159	      3.44975805	      2.10555207	      0.87809685	     43.12439064	     15.37664692	      6.51161500	      0.00000000	      0.00000000	      9.02993740	     -1.89447084	    -16.18453295	     43.54084874	    -42.38195466	     69.86733096	     41.58150074	     89.99559364	      0.00000000	      0.00000000	     15.60580199	    -18.45685521	     10.12691279	     75.08254687	     89.99559364	      0.00000000	      0.00000000
      6.06666667	      9.28768697	    -18.94760372	    105.16557266	     -0.12082597	      0.49256285	      0.36668638	     83.61625773	    -23.21619381	     34.41868818	    119.97286980	      2.09392159	     36.68199024	      0.81509216	      0.00000000	     66.65696105	    -16.69846269	     17.21043364	    119.89484094	      2.09255973	      7.82794144	    -15.66190359	      0.00000000	     -0.51516159	      1.85021181	     -0.54683639	     -0.95670659	      2.46078171	     -0.58101366	     -0.84635898	      4.49860500	     -0.58101366	     -0.58877818	      4.49860500	     -0.47848184	     -0.47837905	      3.77295193	     -0.44430456	     -0.29436333	      2.86597810	     -0.41012729	     -3.67974773	     20.92996608	     -3.04133992	      0.00000000	      0.00000000	     27.85087241	     -5.60013212	    -13.16028925	     68.12929172	    -41.49687619	     90.79289695	     36.94167059	     89.99559364	      0.00000000	      0.00000000	     28.65255362	    -14.88336547	      9.80686343	     75.06002435	     89.99559364	      0.00000000	      0.00000000
      6.10000000	      8.72548873	    -17.65285975	    104.27776509	     -0.10658673	      0.50416582	      0.36928870	     82.54852114	    -22.84609758	     32.08328292	    119.96837020	      2.09384306	     36.92447679	      2.31129015	      0.00000000	     64.81648347	    -18.33767351	     17.34490626	    117.37237084	      2.04853432	      7.01678083	    -15.86528242	      0.00000000	     -0.50021072	      1.85083045	     -0.48202629	     -0.92894134	      2.46160450	     -0.51215293	     -0.82179620	      4.50010916	     -0.51215293	     -0.57169084	      4.50010916	     -0.42177300	     -0.46449568	      3.77421346	     -0.39164636	     -0.28582041	      2.86693637	     -0.36151972	     -3.57295519	     20.93696424	     -2.68088561	      0.00000000	      0.00000000	     27.47832122	     -5.11331377	    -13.10845214	     66.46429006	    -44.40331010	     91.65335646	     38.19580520	     89.99559364	      0.00000000	      0.00000000	     28.28669451	    -14.79740534	      9.82963121	     75.05967769	     89.99559364	      0.00000000	      0.00000000
      6.13333333	      7.02656584	    -15.12170968	    104.05158972	     -0.09073215	      0.52173231	      0.37326579	     79.93617808	    -23.32850280	     30.10532797	    119.95957930	      2.09368963	     36.95888981	      3.65678908	      0.00000000	     60.83531150	    -18.78526818	     16.31372877	    113.31131473	      1.97765552	      5.37570343	    -17.50874357	      0.00000000	     -0.80866581	      1.71421500	     -0.59857071	     -1.50177328	      2.27990596	     -0.63598137	     -1.32855706	      4.16794236	     -0.63598137	     -0.92422415	      4.16794236	     -0.52374937	     -0.75092707	      3.49562724	     -0.48633870	     -0.46207164	      2.65531904	     -0.44892803	     -5.77621902	     19.39154297	     -3.32907069	      0.00000000	      0.00000000	     27.25896641	     -4.17454401	    -13.79294653	     63.69130236	    -46.00284005	     89.73035933	     37.96731615	     89.99559364	      0.00000000	      0.00000000	     26.77209711	    -14.47344455	      9.92147874	     75.05837440	     89.99559364	      0.00000000	      0.00000000
      6.16666667	      6.27011023	    -14.44870550	    103.90794406	     -0.07389994	      0.53686429	      0.37688353	     79.12975393	    -23.29244341	     27.59558961	    119.93859130	      2.09332332	     36.44428863	      4.58113921	      0.00000000	     59.03365456	    -19.67968037	     15.32904806	    109.58423802	      1.91260576	      4.24111692	    -18.45961213	      0.00000000	     -0.75995945	      1.61059037	     -0.64168843	     -1.41132069	      2.14208519	     -0.68179395	     -1.24853738	      3.91598943	     -0.68179395	     -0.86855765	      3.91598943	     -0.56147737	     -0.70569834	      3.28431588	     -0.52137185	     -0.43424083	      2.49480448	     -0.48126632	     -5.42831434	     18.21932039	     -3.56887852	      0.00000000	      0.00000000	     26.11241322	     -3.12802428	    -13.73805903	     60.81833125	    -47.51128945	     90.47508207	     37.92823621	     89.99559364	      0.00000000	      0.00000000	     26.65321903	    -14.45865181	      9.92787676	     75.05817053	     89.99559364	      0.00000000	      0.00000000
      6.20000000	      4.56844289	    -13.13477722	    103.68547215	     -0.05612152	      0.55419487	      0.38165081	     77.72815856	    -23.46736926	     26.02306314	    119.86107287	      2.09197037	     36.16721937	      6.30858561	      0.00000000	     56.06957746	    -20.06282534	     13.21806684	    105.91918971	      1.84863860	      3.23131979	    -19.20814909	      0.00000000	     -0.92337551	      1.37283593	     -0.70830345	     -1.71480065	      1.82587179	     -0.75257242	     -1.51701362	      3.33791328	     -0.75257242	     -1.05532587	      3.33791328	     -0.61976552	     -0.85744650	      2.79948703	     -0.57549656	     -0.52761676	      2.12652286	     -0.53122759	     -6.59557890	     15.52979462	     -3.93937132	      0.00000000	      0.00000000	     25.61432666	     -1.71571285	    -14.95150559	     55.20746575	    -48.36312921	     83.13580248	     37.56071618	     89.99559364	      0.00000000	      0.00000000	     25.65793388	    -14.20326146	      9.99155062	     75.05682342	     89.99559364	      0.00000000	      0.00000000
      6.23333333	      4.04280296	    -13.33635611	    103.45667731	     -0.04028177	      0.57130843	      0.38643269	     77.31809112	    -23.18995376	     23.47525355	    118.70698216	      2.07182768	     35.61826565	      7.52134264	      0.00000000	     54.95525237	    -20.88005520	     11.23705354	    102.56645842	      1.79012240	      2.76148152	    -19.49174547	      0.00000000	     -0.78288525	      1.24548863	     -0.65725147	     -1.45389620	      1.65649988	     -0.69832968	     -1.28620218	      3.02828105	     -0.69832968	     -0.89475955	      3.02828105	     -0.57509503	     -0.72698724	      2.53980041	     -0.53401682	     -0.44734063	      1.92926188	     -0.49293860	     -5.59207106	     14.08921646	     -3.65543549	      0.00000000	      0.00000000	     24.06177791	     -0.85442032	    -15.53733509	     49.74294572	    -49.48066550	     77.90952371	     37.42912453	     89.99559364	      0.00000000	      0.00000000	     25.36224249	    -13.00648629	     10.09644542	     75.05502834	     89.99559364	      0.00000000	      0.00000000
      6.26666667	      4.25602630	    -12.89252096	    103.44891304	     -0.02804771	      0.59293253	      0.39344225	     75.24996788	    -22.90010219	     19.70841789	    115.71592396	      2.01962387	     35.38128804	      8.57219081	      0.00000000	     53.53520024	    -21.75466531	      9.59890287	     99.31276354	      1.73333471	      2.61333076	    -19.65565288	      0.00000000	     -0.79375479	      1.25421999	     -0.60000682	     -1.47408202	      1.66811258	     -0.63750724	     -1.30405975	      3.04951047	     -0.63750724	     -0.90718235	      3.04951047	     -0.52500597	     -0.73708070	      2.55760539	     -0.48750554	     -0.45355149	      1.94278676	     -0.45000511	     -5.66971110	     14.18798731	     -3.33705792	      0.00000000	      0.00000000	     22.99034991	     -0.60287483	    -15.64313715	     45.99802562	    -50.68025141	     74.96363340	     37.07542831	     89.99559364	      0.00000000	      0.00000000	     25.50206935	    -10.58193304	     10.27620791	     75.05330876	     89.99559364	      0.00000000	      0.00000000
      6.30000000	      4.64242125	    -12.87815544	    103.47240094	     -0.01655564	      0.61524570	      0.40076335	     73.41076880	    -22.48164904	     16.04384383	    112.24195079	      1.95899160	     34.99838987	      9.68667770	      0.00000000	     52.49334426	    -22.61522680	      7.64423296	     96.15686716	      1.67825393	      2.74719359	    -19.73841075	      0.00000000	     -0.73550968	      1.26209590	     -0.51313095	     -1.36591502	      1.67858754	     -0.54520164	     -1.20836885	      3.06865996	     -0.54520164	     -0.84061401	      3.06865996	     -0.44898958	     -0.68299429	      2.57366595	     -0.41691890	     -0.42027023	      1.95498654	     -0.38484821	     -5.25367208	     14.27708119	     -2.85388042	      0.00000000	      0.00000000	     21.71369256	     -0.36640771	    -15.85841016	     41.61055276	    -51.67362330	     71.01318083	     36.82377015	     89.99559364	      0.00000000	      0.00000000	     26.38448495	     -6.01810449	     10.58726348	     75.05068060	     89.99559364	      0.00000000	      0.00000000
